<?xml version="1.0" encoding="utf-8"?>
<!-- Generator: Adobe Illustrator 24.0.1, SVG Export Plug-In . SVG Version: 6.00 Build 0)  -->
<svg version="1.1" id="Layer_1" xmlns="http://www.w3.org/2000/svg" xmlns:xlink="http://www.w3.org/1999/xlink" x="0px" y="0px"
	 viewBox="0 0 1024 1024" style="enable-background:new 0 0 1024 1024;" xml:space="preserve">
<style type="text/css">
	.st0{fill:#151120;}
	.st1{fill:none;stroke:url(#SVGID_1_);stroke-width:16;stroke-linecap:round;}
	.st2{fill:none;stroke:url(#SVGID_2_);stroke-width:16;stroke-linecap:round;}
	.st3{fill:none;stroke:url(#SVGID_3_);stroke-width:16;stroke-linecap:round;}
	.st4{fill:none;stroke:url(#SVGID_4_);stroke-width:16;stroke-linecap:round;}
	.st5{fill:none;stroke:url(#SVGID_5_);stroke-width:16;stroke-linecap:round;}
	.st6{fill:none;stroke:url(#SVGID_6_);stroke-width:16;stroke-linecap:round;}
	.st7{opacity:0.45;}
	.st8{fill:none;stroke:#EAD9A8;stroke-width:12;}
	.st9{fill:#F3E7C4;}
	.st10{fill:url(#SVGID_7_);}
	.st11{opacity:0.25;enable-background:new    ;}
	.st12{fill:#08070C;}
</style>
<path class="st0" d="M230.8,0h562.4C920.7,0,1024,103.3,1024,230.8v562.4c0,127.5-103.3,230.8-230.8,230.8H230.8
	C103.3,1024,0,920.7,0,793.2V230.8C0,103.3,103.3,0,230.8,0z"/>
<path class="st0" d="M220,0h584c121.5,0,220,98.5,220,220v584c0,121.5-98.5,220-220,220H220C98.5,1024,0,925.5,0,804V220
	C0,98.5,98.5,0,220,0z"/>
<g>
	
		<linearGradient id="SVGID_1_" gradientUnits="userSpaceOnUse" x1="-280.5063" y1="251.0575" x2="-278.282" y2="248.8332" gradientTransform="matrix(71.0202 0 0 -215 20292.2168 54289.3438)">
		<stop  offset="0" style="stop-color:#EAD9A8"/>
		<stop  offset="1" style="stop-color:#B78F4E"/>
	</linearGradient>
	<path class="st1" d="M512,512c-29.5-147.5-114.7-245.8,0-352.3C626.7,266.2,541.5,364.5,512,512z"/>
	
		<linearGradient id="SVGID_2_" gradientUnits="userSpaceOnUse" x1="-275.2559" y1="253.5784" x2="-273.0316" y2="251.3541" gradientTransform="matrix(35.5101 61.5053 186.1955 -107.5 -36826.3398 44478.9297)">
		<stop  offset="0" style="stop-color:#EAD9A8"/>
		<stop  offset="1" style="stop-color:#B78F4E"/>
	</linearGradient>
	<path class="st2" d="M512,512c113-99.3,155.5-222.2,305.1-176.1C782.2,488.4,654.5,463.8,512,512z"/>
	
		<linearGradient id="SVGID_3_" gradientUnits="userSpaceOnUse" x1="-279.2399" y1="256.3419" x2="-277.0156" y2="254.1176" gradientTransform="matrix(-35.5101 61.5053 186.1955 107.5 -56889.5586 -9892.4209)">
		<stop  offset="0" style="stop-color:#EAD9A8"/>
		<stop  offset="1" style="stop-color:#B78F4E"/>
	</linearGradient>
	<path class="st3" d="M512,512c142.5,48.2,270.2,23.6,305.1,176.1C667.5,734.2,625,611.3,512,512z"/>
	
		<linearGradient id="SVGID_4_" gradientUnits="userSpaceOnUse" x1="-288.4759" y1="256.5831" x2="-286.2516" y2="254.3588" gradientTransform="matrix(-71.0202 0 0 215 -19834.2168 -54453.3438)">
		<stop  offset="0" style="stop-color:#EAD9A8"/>
		<stop  offset="1" style="stop-color:#B78F4E"/>
	</linearGradient>
	<path class="st4" d="M512,512c29.5,147.5,114.7,245.8,0,352.3C397.3,757.8,482.5,659.5,512,512z"/>
	
		<linearGradient id="SVGID_5_" gradientUnits="userSpaceOnUse" x1="-293.7272" y1="254.0613" x2="-291.5029" y2="251.837" gradientTransform="matrix(-35.5101 -61.5053 -186.1955 107.5 37284.3398 -44642.9297)">
		<stop  offset="0" style="stop-color:#EAD9A8"/>
		<stop  offset="1" style="stop-color:#B78F4E"/>
	</linearGradient>
	<path class="st5" d="M512,512c-113,99.3-155.5,222.2-305.1,176.1C241.8,535.6,369.5,560.2,512,512z"/>
	
		<linearGradient id="SVGID_6_" gradientUnits="userSpaceOnUse" x1="-289.7416" y1="251.2994" x2="-287.5174" y2="249.0751" gradientTransform="matrix(35.5101 -61.5053 -186.1955 -107.5 57347.5586 9728.4209)">
		<stop  offset="0" style="stop-color:#EAD9A8"/>
		<stop  offset="1" style="stop-color:#B78F4E"/>
	</linearGradient>
	<path class="st6" d="M512,512c-142.5-48.2-270.2-23.6-305.1-176.1C356.5,289.8,399,412.7,512,512z"/>
	<g class="st7">
		<line class="st8" x1="512" y1="159.7" x2="817.1" y2="335.9"/>
		<line class="st8" x1="817.1" y1="335.9" x2="817.1" y2="688.1"/>
		<line class="st8" x1="817.1" y1="688.1" x2="512" y2="864.3"/>
		<line class="st8" x1="512" y1="864.3" x2="206.9" y2="688.1"/>
		<line class="st8" x1="206.9" y1="688.1" x2="206.9" y2="335.9"/>
		<line class="st8" x1="206.9" y1="335.9" x2="512" y2="159.7"/>
	</g>
	<circle class="st9" cx="512" cy="159.7" r="14.7"/>
	<circle class="st9" cx="817.1" cy="335.9" r="14.7"/>
	<circle class="st9" cx="817.1" cy="688.1" r="14.7"/>
	<circle class="st9" cx="512" cy="864.3" r="14.7"/>
	<circle class="st9" cx="206.9" cy="688.1" r="14.7"/>
	<circle class="st9" cx="206.9" cy="335.9" r="14.7"/>
	<g>
		
			<radialGradient id="SVGID_7_" cx="-278.3382" cy="244.6547" r="0.8191" gradientTransform="matrix(68 0 0 -68 19439 17148.5195)" gradientUnits="userSpaceOnUse">
			<stop  offset="0" style="stop-color:#F3E7C4"/>
			<stop  offset="1" style="stop-color:#C9A961"/>
		</radialGradient>
		<circle class="st10" cx="512" cy="512" r="55.7"/>
		<g class="st11">
			<path class="st12" d="M512,456.3c30.8,0,55.7,24.9,55.7,55.7s-24.9,55.7-55.7,55.7s-55.7-24.9-55.7-55.7S481.2,456.3,512,456.3
				 M512,440.3c-39.5,0-71.7,32.2-71.7,71.7s32.2,71.7,71.7,71.7s71.7-32.2,71.7-71.7S551.5,440.3,512,440.3L512,440.3z"/>
		</g>
	</g>
</g>
</svg>
